{
  "accessors": [
    {
      "bufferView": 2,
      "componentType": 5126,
      "count": 1155,
      "max": [
        0.10769987106323242,
        0.10563680529594421,
        0.26478111743927002
      ],
      "min": [
        -0.10548721998929977,
        -0.10755028575658798,
        -0.0016414672136306763
      ],
      "type": "VEC3"
    },
    {
      "bufferView": 2,
      "byteOffset": 13860,
      "componentType": 5126,
      "count": 1155,
      "max": [
        1,
        1,
        1
      ],
      "min": [
        -1,
        -1,
        -0.99902158975601196
      ],
      "type": "VEC3"
    },
    {
      "bufferView": 3,
      "componentType": 5126,
      "count": 1155,
      "max": [
        0.99987506866455078,
        0.99990683794021606,
        0.99999958276748657,
        1
      ],
      "min": [
        -0.99997568130493164,
        -0.98217791318893433,
        -0.9999995231628418,
        1
      ],
      "type": "VEC4"
    },
    {
      "bufferView": 1,
      "componentType": 5126,
      "count": 1155,
      "max": [
        0.99741387367248535,
        0.99609357118606567
      ],
      "min": [
        0.0025861598551273346,
        0.0025861598551273346
      ],
      "type": "VEC2"
    },
    {
      "bufferView": 0,
      "componentType": 5125,
      "count": 3024,
      "max": [
        1154
      ],
      "min": [
        0
      ],
      "type": "SCALAR"
    },
    {
      "bufferView": 2,
      "byteOffset": 27720,
      "componentType": 5126,
      "count": 1221,
      "max": [
        0.26348808407783508,
        0.26348808407783508,
        0.93926441669464111
      ],
      "min": [
        -0.26348808407783508,
        -0.26348808407783508,
        0.24629616737365723
      ],
      "type": "VEC3"
    },
    {
      "bufferView": 2,
      "byteOffset": 42372,
      "componentType": 5126,
      "count": 1221,
      "max": [
        0.99965548515319824,
        0.99965548515319824,
        1
      ],
      "min": [
        -0.99965548515319824,
        -0.99965548515319824,
        -1
      ],
      "type": "VEC3"
    },
    {
      "bufferView": 3,
      "byteOffset": 18480,
      "componentType": 5126,
      "count": 1221,
      "max": [
        0.99197721481323242,
        0.99997729063034058,
        0.99964666366577148,
        1
      ],
      "min": [
        -0.90852171182632446,
        -0.99977016448974609,
        -0.99960464239120483,
        1
      ],
      "type": "VEC4"
    },
    {
      "bufferView": 1,
      "byteOffset": 9240,
      "componentType": 5126,
      "count": 1221,
      "max": [
        0.92862540483474731,
        0.96198689937591553
      ],
      "min": [
        0.0025861598551273346,
        0.0025861598551273346
      ],
      "type": "VEC2"
    },
    {
      "bufferView": 0,
      "byteOffset": 12096,
      "componentType": 5125,
      "count": 4608,
      "max": [
        1220
      ],
      "min": [
        0
      ],
      "type": "SCALAR"
    },
    {
      "bufferView": 2,
      "byteOffset": 57024,
      "componentType": 5126,
      "count": 497,
      "max": [
        0.064285635948181152,
        0.064285635948181152,
        0.80321043729782104
      ],
      "min": [
        -0.064285635948181152,
        -0.064285635948181152,
        0.28340789675712585
      ],
      "type": "VEC3"
    },
    {
      "bufferView": 2,
      "byteOffset": 62988,
      "componentType": 5126,
      "count": 497,
      "max": [
        1,
        1,
        1
      ],
      "min": [
        -1,
        -1,
        -1
      ],
      "type": "VEC3"
    },
    {
      "bufferView": 3,
      "byteOffset": 38016,
      "componentType": 5126,
      "count": 497,
      "max": [
        0.99999028444290161,
        0.99999988079071045,
        0.9999956488609314,
        1
      ],
      "min": [
        -0.9999924898147583,
        -0.99999827146530151,
        -0.99939620494842529,
        1
      ],
      "type": "VEC4"
    },
    {
      "bufferView": 1,
      "byteOffset": 19008,
      "componentType": 5126,
      "count": 497,
      "max": [
        0.97348618507385254,
        0.9945339560508728
      ],
      "min": [
        0.20241771638393402,
        0.056615319103002548
      ],
      "type": "VEC2"
    },
    {
      "bufferView": 0,
      "byteOffset": 30528,
      "componentType": 5125,
      "count": 1536,
      "max": [
        496
      ],
      "min": [
        0
      ],
      "type": "SCALAR"
    },
    {
      "bufferView": 2,
      "byteOffset": 68952,
      "componentType": 5126,
      "count": 66,
      "max": [
        0.045436345040798187,
        0.037891365587711334,
        0.0080455243587493896
      ],
      "min": [
        -0.043064918369054794,
        -0.0480821393430233,
        0.0017477422952651978
      ],
      "type": "VEC3"
    },
    {
      "bufferView": 2,
      "byteOffset": 69744,
      "componentType": 5126,
      "count": 66,
      "max": [
        0.98503208160400391,
        0.96267062425613403,
        0
      ],
      "min": [
        -0.99999988079071045,
        -0.99999988079071045,
        -0.99325001239776611
      ],
      "type": "VEC3"
    },
    {
      "bufferView": 3,
      "byteOffset": 45968,
      "componentType": 5126,
      "count": 66,
      "max": [
        0.6156381368637085,
        0.73524641990661621,
        0.75970393419265747,
        1
      ],
      "min": [
        -0.89833551645278931,
        -0.58178824186325073,
        -0.99998933076858521,
        1
      ],
      "type": "VEC4"
    },
    {
      "bufferView": 1,
      "byteOffset": 22984,
      "componentType": 5126,
      "count": 66,
      "max": [
        0.81455004215240479,
        0.83437967300415039
      ],
      "min": [
        0.22611331939697266,
        0.34975630044937134
      ],
      "type": "VEC2"
    },
    {
      "bufferView": 0,
      "byteOffset": 36672,
      "componentType": 5125,
      "count": 168,
      "max": [
        65
      ],
      "min": [
        0
      ],
      "type": "SCALAR"
    }
  ],
  "asset": {
    "extras": {
      "author": "Helsingr (https://sketchfab.com/helsingr)",
      "license": "CC-BY-4.0 (http://creativecommons.org/licenses/by/4.0/)",
      "source": "https://sketchfab.com/3d-models/idea-lamp-4c2b7bdc188e4c74b5392e4d967a1a0a",
      "title": "Idea lamp"
    },
    "generator": "Sketchfab-7.20.0",
    "version": "2.0"
  },
  "bufferViews": [
    {
      "buffer": 0,
      "byteLength": 37344,
      "byteOffset": 0,
      "name": "floatBufferViews",
      "target": 34963
    },
    {
      "buffer": 0,
      "byteLength": 23512,
      "byteOffset": 37344,
      "byteStride": 8,
      "name": "floatBufferViews",
      "target": 34962
    },
    {
      "buffer": 0,
      "byteLength": 70536,
      "byteOffset": 60856,
      "byteStride": 12,
      "name": "floatBufferViews",
      "target": 34962
    },
    {
      "buffer": 0,
      "byteLength": 47024,
      "byteOffset": 131392,
      "byteStride": 16,
      "name": "floatBufferViews",
      "target": 34962
    }
  ],
  "buffers": [
    {
      "byteLength": 178416,
      "uri": "scene.bin"
    }
  ],
  "images": [
    {
      "uri": "textures/Scene_-_Root_baseColor.png"
    },
    {
      "uri": "textures/Scene_-_Root_metallicRoughness.png"
    },
    {
      "uri": "textures/Scene_-_Root_emissive.png"
    },
    {
      "uri": "textures/Scene_-_Root_normal.png"
    }
  ],
  "materials": [
    {
      "alphaMode": "BLEND",
      "doubleSided": true,
      "emissiveFactor": [
        1,
        1,
        1
      ],
      "emissiveTexture": {
        "index": 2,
        "texCoord": 0
      },
      "name": "Scene_-_Root",
      "normalTexture": {
        "index": 3,
        "scale": 1,
        "texCoord": 0
      },
      "occlusionTexture": {
        "index": 1,
        "strength": 1,
        "texCoord": 0
      },
      "pbrMetallicRoughness": {
        "baseColorFactor": [
          1,
          1,
          1,
          1
        ],
        "baseColorTexture": {
          "index": 0,
          "texCoord": 0
        },
        "metallicFactor": 1,
        "metallicRoughnessTexture": {
          "index": 1,
          "texCoord": 0
        },
        "roughnessFactor": 1
      }
    }
  ],
  "meshes": [
    {
      "name": "Base__0",
      "primitives": [
        {
          "attributes": {
            "NORMAL": 1,
            "POSITION": 0,
            "TANGENT": 2,
            "TEXCOORD_0": 3
          },
          "indices": 4,
          "material": 0,
          "mode": 4
        }
      ]
    },
    {
      "name": "Glass__0",
      "primitives": [
        {
          "attributes": {
            "NORMAL": 6,
            "POSITION": 5,
            "TANGENT": 7,
            "TEXCOORD_0": 8
          },
          "indices": 9,
          "material": 0,
          "mode": 4
        }
      ]
    },
    {
      "name": "Cube__0",
      "primitives": [
        {
          "attributes": {
            "NORMAL": 11,
            "POSITION": 10,
            "TANGENT": 12,
            "TEXCOORD_0": 13
          },
          "indices": 14,
          "material": 0,
          "mode": 4
        }
      ]
    },
    {
      "name": "BaseIsolation__0",
      "primitives": [
        {
          "attributes": {
            "NORMAL": 16,
            "POSITION": 15,
            "TANGENT": 17,
            "TEXCOORD_0": 18
          },
          "indices": 19,
          "material": 0,
          "mode": 4
        }
      ]
    }
  ],
  "nodes": [
    {
      "children": [
        1
      ],
      "name": "RootNode (gltf orientation matrix)",
      "rotation": [
        -0.70710678118654746,
        -0,
        -0,
        0.70710678118654757
      ]
    },
    {
      "children": [
        2
      ],
      "name": "RootNode (model correction matrix)"
    },
    {
      "children": [
        3
      ],
      "matrix": [
        1,
        0,
        0,
        0,
        0,
        0,
        1,
        0,
        0,
        -1,
        0,
        0,
        0,
        0,
        0,
        1
      ],
      "name": "Lamp.fbx"
    },
    {
      "children": [
        4,
        6,
        8,
        10
      ],
      "name": "RootNode"
    },
    {
      "children": [
        5
      ],
      "matrix": [
        100,
        0,
        0,
        0,
        0,
        -1.6292067939183141e-05,
        -99.999999999998678,
        0,
        0,
        99.999999999998678,
        -1.6292067939183141e-05,
        0,
        0,
        0,
        0,
        1
      ],
      "name": "Base"
    },
    {
      "mesh": 0,
      "name": "Base__0"
    },
    {
      "children": [
        7
      ],
      "matrix": [
        100,
        0,
        0,
        0,
        0,
        -1.6292067939183141e-05,
        -99.999999999998678,
        0,
        0,
        99.999999999998678,
        -1.6292067939183141e-05,
        0,
        0,
        0,
        0,
        1
      ],
      "name": "Glass"
    },
    {
      "mesh": 1,
      "name": "Glass__0"
    },
    {
      "children": [
        9
      ],
      "matrix": [
        100,
        0,
        0,
        0,
        0,
        -1.6292067939183141e-05,
        -99.999999999998678,
        0,
        0,
        99.999999999998678,
        -1.6292067939183141e-05,
        0,
        0,
        0,
        0,
        1
      ],
      "name": "Cube"
    },
    {
      "mesh": 2,
      "name": "Cube__0"
    },
    {
      "children": [
        11
      ],
      "matrix": [
        100,
        0,
        0,
        0,
        0,
        -1.6292067939183141e-05,
        -99.999999999998678,
        0,
        0,
        99.999999999998678,
        -1.6292067939183141e-05,
        0,
        0,
        0,
        0,
        1
      ],
      "name": "BaseIsolation"
    },
    {
      "mesh": 3,
      "name": "BaseIsolation__0"
    }
  ],
  "samplers": [
    {
      "magFilter": 9729,
      "minFilter": 9987,
      "wrapS": 10497,
      "wrapT": 10497
    }
  ],
  "scene": 0,
  "scenes": [
    {
      "name": "OSG_Scene",
      "nodes": [
        0
      ]
    }
  ],
  "textures": [
    {
      "sampler": 0,
      "source": 0
    },
    {
      "sampler": 0,
      "source": 1
    },
    {
      "sampler": 0,
      "source": 2
    },
    {
      "sampler": 0,
      "source": 3
    }
  ]
}

